<?xml version='1.0' encoding='utf-8'?>
<svg xmlns="http://www.w3.org/2000/svg" width="144pt" height="144pt" viewBox="0 0 144 144" version="1.1">
  <g transform="translate(-0.076 0.283)">
    <g id="#09213eff">
      <path fill="#09213e" opacity="1.00" d=" M 42.67 33.96 C 41.83 29.43 47.94 25.95 51.52 28.72 C 54.74 30.60 55.15 35.55 52.15 37.84 C 52.15 38.70 52.13 40.42 52.13 41.28 C 51.90 52.89 52.02 64.51 52.10 76.12 C 52.14 88.09 52.16 100.07 52.14 112.04 C 53.13 116.32 45.25 117.12 45.14 112.98 C 45.07 88.21 45.23 63.43 45.09 38.66 C 44.38 37.05 42.77 35.80 42.67 33.96 Z" />
    </g>
    <g id="#0259c8ff">
      <path fill="#0259c8" opacity="1.00" d=" M 52.13 41.28 C 58.10 37.94 65.32 36.49 72.04 38.10 C 76.28 38.94 79.69 42.00 83.95 42.79 C 89.51 44.15 95.05 42.06 100.04 39.77 C 101.90 40.41 101.48 42.42 101.56 43.95 C 101.49 52.96 101.56 61.96 101.54 70.97 C 101.39 72.12 101.88 73.74 100.47 74.28 C 95.53 77.27 89.45 78.21 83.78 77.27 C 78.80 76.42 74.76 72.84 69.69 72.36 C 63.54 71.32 57.59 73.60 52.10 76.12 C 52.02 64.51 51.90 52.89 52.13 41.28 Z" />
    </g>
  </g>
</svg>