<?xml version='1.0' encoding='utf-8'?>
<svg xmlns="http://www.w3.org/2000/svg" width="144pt" height="144pt" viewBox="0 0 144 144" version="1.1">
  <g transform="translate(0.159 0.380)">
    <g id="#02183aff">
      <path fill="#02183a" opacity="1.00" d=" M 68.26 38.44 C 84.51 36.22 100.94 47.99 104.60 63.86 C 108.00 76.30 103.15 90.16 93.22 98.22 C 88.31 102.03 82.42 105.45 75.98 105.02 C 70.76 104.67 65.24 105.92 60.28 103.76 C 51.51 100.64 44.23 93.62 40.60 85.07 C 36.64 75.60 37.18 64.29 42.39 55.39 C 47.62 45.97 57.59 39.61 68.26 38.44 M 70.36 52.44 C 66.63 53.28 64.64 58.00 66.81 61.20 C 68.72 65.24 75.29 65.06 77.07 60.97 C 79.45 56.77 75.04 51.02 70.36 52.44 M 69.24 69.16 C 67.90 69.95 66.72 71.37 66.83 73.00 C 66.90 78.36 66.57 83.73 66.86 89.09 C 67.50 92.78 72.93 93.91 75.34 91.28 C 77.30 89.78 76.71 87.14 76.80 85.00 C 76.68 80.98 76.92 76.96 76.76 72.94 C 76.50 69.53 72.17 67.23 69.24 69.16 Z" />
    </g>
  </g>
</svg>