<?xml version='1.0' encoding='utf-8'?>
<svg xmlns="http://www.w3.org/2000/svg" width="144pt" height="144pt" viewBox="0 0 144 144" version="1.1">
  <g transform="translate(0.503 0.493)">
    <g id="#08213fff">
      <path fill="#08213f" opacity="1.00" d=" M 69.32 30.42 C 71.63 28.74 74.16 30.59 76.27 31.69 C 86.81 37.78 97.55 43.56 108.06 49.72 C 109.31 50.45 109.67 51.54 109.13 52.98 C 107.60 53.99 105.70 53.67 103.98 53.77 C 81.64 53.70 59.29 53.67 36.95 53.69 C 35.76 53.62 33.44 53.91 33.66 52.00 C 32.99 50.17 35.59 49.64 36.63 48.70 C 47.61 42.75 58.37 36.43 69.32 30.42 Z" />
      <path fill="#08213f" opacity="1.00" d=" M 43.03 59.26 C 46.24 59.00 49.53 58.87 52.71 59.42 C 54.05 60.56 53.86 62.41 53.90 63.98 C 53.83 74.02 53.92 84.06 53.91 94.10 C 53.61 94.50 53.00 95.30 52.70 95.70 C 49.22 95.67 45.73 95.93 42.26 95.60 C 41.18 94.73 41.40 93.25 41.30 92.02 C 41.27 82.32 41.39 72.61 41.24 62.91 C 41.11 61.50 41.45 59.67 43.03 59.26 Z" />
      <path fill="#08213f" opacity="1.00" d=" M 67.11 59.22 C 70.39 59.24 74.15 58.31 77.13 59.92 C 78.16 64.52 77.26 69.35 77.52 74.04 C 77.27 81.08 78.08 88.21 77.19 95.19 C 74.97 96.29 72.36 95.78 69.97 95.90 C 68.30 95.82 65.47 96.19 65.48 93.75 C 65.20 83.50 65.46 73.24 65.31 62.98 C 65.29 61.60 65.33 59.48 67.11 59.22 Z" />
      <path fill="#08213f" opacity="1.00" d=" M 91.09 59.27 C 94.05 58.96 97.04 58.98 100.00 59.27 C 101.34 59.25 101.77 60.88 101.72 61.95 C 101.81 71.66 101.67 81.37 101.74 91.08 C 101.62 92.58 102.03 94.40 100.76 95.52 C 97.29 95.93 93.77 95.88 90.30 95.55 C 88.92 94.47 89.36 92.55 89.21 91.03 C 89.24 81.68 89.33 72.33 89.23 62.98 C 89.19 61.61 89.31 59.42 91.09 59.27 Z" />
      <path fill="#08213f" opacity="1.00" d=" M 32.25 111.74 C 32.05 108.03 30.92 101.68 35.94 100.81 C 59.29 100.45 82.65 100.79 106.00 100.63 C 108.23 100.26 110.49 101.73 110.73 104.03 C 110.87 107.11 111.75 110.87 109.24 113.27 C 85.83 113.21 62.42 113.23 39.02 113.20 C 36.77 112.97 33.72 114.04 32.25 111.74 Z" />
    </g>
  </g>
</svg>